<svg xmlns="http://www.w3.org/2000/svg" width="664" height="664" viewBox="0 0 664 664" fill="%23FFFFFF"><path d="M240.078,372.123l38.867-38.867a16,16,0,0,1,22.627,0L327.214,358.9a16,16,0,0,1,0,22.628l-38.866,38.866a16,16,0,0,1-22.628,0L240.078,394.75A16,16,0,0,1,240.078,372.123Z"/><path d="M147.507,464.694l38.866-38.866a16,16,0,0,1,22.628,0L380.112,596.939a16,16,0,0,1,0,22.628l-38.866,38.866a16,16,0,0,1-22.628,0L147.507,487.322A16,16,0,0,1,147.507,464.694Z"/><path d="M292.976,610.164L424.414,478.726a16,16,0,0,1,22.628,0l25.642,25.642a16,16,0,0,1,0,22.627L341.246,658.433a16,16,0,0,1-22.628,0l-25.642-25.642A16,16,0,0,1,292.976,610.164Z"/><path d="M312.813,444.858l38.867-38.867a16,16,0,0,1,22.627,0l98.377,98.377a16,16,0,0,1,0,22.627l-38.867,38.867a16,16,0,0,1-22.627,0l-98.377-98.377A16,16,0,0,1,312.813,444.858Z"/><path d="M312.813,444.858L444.251,313.42a16,16,0,0,1,22.627,0l25.642,25.642a16,16,0,0,1,0,22.627L361.082,493.127a16,16,0,0,1-22.627,0l-25.642-25.642A16,16,0,0,1,312.813,444.858Z"/><path d="M332.65,279.551l38.866-38.866a16,16,0,0,1,22.628,0l98.376,98.377a16,16,0,0,1,0,22.627l-38.866,38.867a16,16,0,0,1-22.627,0L332.65,302.179A16,16,0,0,1,332.65,279.551Z"/><path d="M478.119,425.021L609.557,293.583a16,16,0,0,1,22.628,0l25.642,25.642a16,16,0,0,1,0,22.627L526.389,473.29a16,16,0,0,1-22.628,0l-25.642-25.642A16,16,0,0,1,478.119,425.021Z"/><path d="M352.487,114.245l38.866-38.866a16,16,0,0,1,22.627,0L657.827,319.225a16,16,0,0,1,0,22.627L618.96,380.719a16,16,0,0,1-22.627,0L352.487,136.873A16,16,0,0,1,352.487,114.245Z"/><path d="M74.772,391.96l224.01-224.01a16,16,0,0,1,22.627,0l25.642,25.642a16,16,0,0,1,0,22.628L123.041,440.229a16,16,0,0,1-22.627,0L74.772,414.587A16,16,0,0,1,74.772,391.96Z"/><path d="M7.694,313.568L312.961,8.3a24,24,0,0,1,33.942,0l14.328,14.328a24,24,0,0,1,0,33.941L55.964,361.838a24,24,0,0,1-33.941,0L7.694,347.509A24,24,0,0,1,7.694,313.568Z"/></svg>
